<?xml version="1.0" standalone="no"?>
<!DOCTYPE svg PUBLIC "-//W3C//DTD SVG 20010904//EN"
 "http://www.w3.org/TR/2001/REC-SVG-20010904/DTD/svg10.dtd">
<svg version="1.0" xmlns="http://www.w3.org/2000/svg"
 width="260.000000pt" height="260.000000pt" viewBox="0 0 260.000000 260.000000"
 preserveAspectRatio="xMidYMid meet">
<metadata>
Created by potrace 1.14, written by Peter Selinger 2001-2017
</metadata>
<g transform="translate(0.000000,260.000000) scale(0.100000,-0.100000)"
fill="#000000" stroke="none">
<path d="M1255 2577 c-22 -12 -65 -36 -95 -54 -30 -17 -71 -40 -90 -51 -19
-10 -150 -84 -290 -164 -140 -80 -365 -207 -500 -283 -135 -76 -252 -144 -260
-151 -13 -11 -16 -49 -18 -222 l-3 -209 43 -18 c24 -11 45 -22 48 -25 9 -9 65
-41 93 -53 15 -6 27 -15 27 -18 0 -4 11 -6 24 -5 52 6 10 -33 -107 -100 l-122
-69 0 -215 c0 -198 1 -215 17 -214 10 1 16 -1 14 -5 -3 -4 16 -18 42 -31 26
-13 59 -32 74 -42 14 -10 31 -18 38 -18 6 0 18 -7 27 -16 9 -8 22 -13 30 -10
8 3 12 2 9 -2 -7 -12 52 -44 66 -36 6 4 8 3 5 -3 -7 -10 20 -28 36 -25 4 1 7
-2 7 -6 0 -5 17 -17 37 -28 21 -10 67 -36 102 -58 36 -21 75 -39 87 -40 12 0
20 -4 18 -8 -7 -11 35 -30 48 -22 7 4 8 3 4 -5 -4 -6 0 -14 11 -18 10 -4 38
-20 63 -35 24 -16 51 -26 58 -23 7 2 11 1 8 -4 -7 -11 69 -53 79 -43 5 4 5 2
2 -4 -4 -7 12 -19 38 -30 25 -10 45 -21 45 -25 0 -4 9 -11 21 -14 11 -4 66
-34 121 -66 56 -33 107 -58 115 -55 8 3 12 2 9 -3 -9 -14 74 -54 88 -42 6 5
216 125 466 267 606 343 739 418 776 439 l30 18 0 211 c-1 209 -1 211 -23 221
-13 5 -23 13 -23 17 0 5 -4 8 -9 8 -15 0 -191 103 -191 111 0 4 39 29 88 55
48 26 103 57 123 70 l35 22 3 209 2 208 -46 28 c-25 15 -50 27 -54 27 -5 0
-14 7 -21 15 -7 8 -16 13 -20 10 -4 -3 -13 2 -20 10 -7 8 -16 15 -21 15 -5 0
-27 11 -49 25 -22 14 -40 22 -40 18 0 -5 -4 -2 -9 5 -4 7 -17 14 -29 15 -11 0
-19 4 -16 8 2 4 -9 13 -26 21 -16 7 -30 16 -30 19 0 7 -60 31 -69 28 -2 0 -7
3 -10 9 -8 12 -101 65 -101 58 0 -4 -10 2 -22 14 -12 11 -27 20 -34 20 -6 0
-17 7 -24 15 -7 9 -15 13 -18 11 -2 -3 -11 2 -19 10 -9 8 -22 13 -29 10 -8 -3
-13 -2 -13 2 3 19 -2 25 -11 12 -8 -13 -10 -13 -10 1 0 19 -26 32 -43 22 -7
-3 -9 -3 -5 2 8 8 -54 48 -147 95 -28 14 -52 28 -55 32 -3 3 -12 8 -20 10 -8
2 -23 11 -34 21 -11 10 -27 15 -35 12 -9 -3 -12 -3 -8 1 10 10 -72 55 -86 47
-7 -3 -9 -3 -5 2 6 6 -116 88 -126 85 0 -1 -19 -11 -41 -23z m472 -292 c0 -8
-4 -12 -9 -9 -5 3 -6 10 -3 15 9 13 12 11 12 -6z m43 -29 c0 -2 -8 -10 -17
-17 -16 -13 -17 -12 -4 4 13 16 21 21 21 13z m-445 -45 c3 -5 2 -12 -3 -15 -5
-3 -9 1 -9 9 0 17 3 19 12 6z m566 -8 c13 -16 12 -17 -3 -4 -10 7 -18 15 -18
17 0 8 8 3 21 -13z m-459 -100 c15 -8 30 -19 33 -24 4 -5 11 -7 16 -4 5 4 9 2
9 -3 0 -10 47 -27 63 -23 5 1 6 -3 2 -9 -6 -10 51 -37 68 -32 5 1 6 -2 3 -7
-8 -12 53 -43 67 -34 5 3 7 1 4 -4 -8 -13 20 -26 35 -16 6 3 8 2 5 -4 -8 -12
71 -55 85 -46 7 3 8 1 4 -5 -4 -6 6 -18 24 -27 16 -8 30 -13 30 -10 0 4 7 -1
16 -9 8 -9 20 -14 25 -10 5 3 8 0 7 -8 -2 -7 5 -12 15 -12 9 1 17 -2 17 -7 0
-5 18 -18 40 -29 22 -11 40 -18 40 -15 0 3 10 -3 22 -15 12 -11 26 -20 30 -20
5 0 26 -12 48 -26 34 -23 42 -25 57 -13 15 11 16 11 6 -1 -10 -10 -9 -16 4
-25 13 -10 -5 -23 -113 -83 l-129 -70 -82 44 c-46 25 -88 42 -94 38 -8 -4 -9
-3 -5 4 8 13 -30 36 -44 27 -6 -4 -9 -1 -8 7 2 7 -5 12 -14 12 -10 -1 -15 2
-12 7 5 8 -9 13 -28 10 -5 0 -8 3 -8 8 0 5 -12 16 -27 24 -16 7 -49 26 -76 41
-26 15 -53 24 -60 20 -6 -4 -9 -4 -5 1 11 11 -100 77 -115 69 -7 -4 -9 -3 -5
1 5 5 -13 20 -39 35 l-46 27 -246 -140 c-135 -76 -262 -148 -281 -159 -150
-85 -139 -81 -156 -64 -8 9 -20 14 -25 11 -5 -4 -9 -1 -9 5 0 7 -7 9 -16 6 -8
-3 -13 -2 -10 3 3 4 -11 17 -31 27 -21 10 -61 33 -91 50 l-54 32 279 158 c153
86 336 190 406 231 71 40 130 73 132 73 3 0 25 13 51 30 l47 29 56 -31 c31
-18 68 -38 83 -45z m-61 60 c13 -16 12 -17 -3 -4 -10 7 -18 15 -18 17 0 8 8 3
21 -13z m399 -7 c-7 -7 -13 -7 -20 0 -6 6 -3 10 10 10 13 0 16 -4 10 -10z m0
-30 c0 -3 -4 -8 -10 -11 -5 -3 -10 -1 -10 4 0 6 5 11 10 11 6 0 10 -2 10 -4z
m321 -43 c13 -16 12 -17 -3 -4 -17 13 -22 21 -14 21 2 0 10 -8 17 -17z m-481
3 c0 -2 -7 -7 -16 -10 -8 -3 -12 -2 -9 4 6 10 25 14 25 6z m260 -26 c0 -5 -5
-10 -11 -10 -5 0 -7 5 -4 10 3 6 8 10 11 10 2 0 4 -4 4 -10z m374 -70 c-6 -6
-10 -3 -10 10 0 13 4 16 10 10 7 -7 7 -13 0 -20z m-163 3 c13 -16 12 -17 -3
-4 -10 7 -18 15 -18 17 0 8 8 3 21 -13z m203 1 c3 -8 2 -12 -4 -9 -6 3 -10 10
-10 16 0 14 7 11 14 -7z m-478 -34 c0 -12 -4 -16 -9 -11 -5 5 -6 14 -3 20 10
15 12 14 12 -9z m78 -10 c-6 -6 -10 -3 -10 10 0 13 4 16 10 10 7 -7 7 -13 0
-20z m-114 10 c0 -5 -2 -10 -4 -10 -3 0 -8 5 -11 10 -3 6 -1 10 4 10 6 0 11
-4 11 -10z m160 6 c0 -3 -4 -8 -10 -11 -5 -3 -10 -1 -10 4 0 6 5 11 10 11 6 0
10 -2 10 -4z m400 -50 c-7 -7 -13 -7 -20 0 -6 6 -3 10 10 10 13 0 16 -4 10
-10z m-124 -36 c0 -12 -4 -16 -9 -11 -5 5 -6 14 -3 20 10 15 12 14 12 -9z
m245 3 c13 -16 12 -17 -3 -4 -10 7 -18 15 -18 17 0 8 8 3 21 -13z m-281 -3 c0
-5 -5 -10 -11 -10 -5 0 -7 5 -4 10 3 6 8 10 11 10 2 0 4 -4 4 -10z m160 6 c0
-3 -4 -8 -10 -11 -5 -3 -10 -1 -10 4 0 6 5 11 10 11 6 0 10 -2 10 -4z m-100
-106 c0 -5 -2 -10 -4 -10 -3 0 -8 5 -11 10 -3 6 -1 10 4 10 6 0 11 -4 11 -10z
m-16 -58 c3 -5 -1 -9 -9 -9 -8 0 -12 4 -9 9 3 4 7 8 9 8 2 0 6 -4 9 -8z m-770
-48 c3 -8 2 -12 -4 -9 -6 3 -10 10 -10 16 0 14 7 11 14 -7z m-1078 -120 c1 -9
0 -13 -4 -10 -3 4 -7 14 -8 22 -1 9 0 13 4 10 3 -4 7 -14 8 -22z m44 22 c0 -2
-8 -10 -17 -17 -16 -13 -17 -12 -4 4 13 16 21 21 21 13z m1316 -16 c0 -12 -4
-16 -9 -11 -5 5 -6 14 -3 20 10 15 12 14 12 -9z m-36 0 c0 -5 -2 -10 -4 -10
-3 0 -8 5 -11 10 -3 6 -1 10 4 10 6 0 11 -4 11 -10z m120 -64 c0 -2 -8 -10
-17 -17 -16 -13 -17 -12 -4 4 13 16 21 21 21 13z m-1300 -30 c0 -3 -4 -8 -10
-11 -5 -3 -10 -1 -10 4 0 6 5 11 10 11 6 0 10 -2 10 -4z m817 -8 c2 6 9 9 15
6 7 -4 6 -9 -2 -14 -9 -5 2 -15 31 -29 24 -11 58 -29 74 -39 17 -10 53 -31 80
-46 28 -16 54 -30 58 -33 5 -3 -51 -39 -125 -81 -95 -55 -143 -76 -170 -77
-20 0 -36 3 -35 8 1 5 -7 14 -18 20 -11 7 -40 24 -64 39 -24 15 -48 25 -52 22
-5 -3 -9 -1 -9 4 0 5 -12 15 -27 23 -84 42 -89 33 74 125 106 59 150 79 156
71 7 -9 10 -9 14 1z m-1237 -22 c-7 -7 -13 -7 -20 0 -6 6 -3 10 10 10 13 0 16
-4 10 -10z m170 10 c0 -2 -8 -10 -17 -17 -16 -13 -17 -12 -4 4 13 16 21 21 21
13z m1155 -6 c-3 -5 -12 -10 -18 -10 -7 0 -6 4 3 10 19 12 23 12 15 0z m315
-24 c0 -2 -8 -10 -17 -17 -16 -13 -17 -12 -4 4 13 16 21 21 21 13z m-1369 -23
c13 -16 12 -17 -3 -4 -10 7 -18 15 -18 17 0 8 8 3 21 -13z m1094 7 c3 -6 -1
-7 -9 -4 -18 7 -21 14 -7 14 6 0 13 -4 16 -10z m-451 -126 c3 -8 2 -12 -4 -9
-6 3 -10 10 -10 16 0 14 7 11 14 -7z m-34 -58 c0 -2 -8 -10 -17 -17 -16 -13
-17 -12 -4 4 13 16 21 21 21 13z m-43 -21 c0 -8 -4 -12 -9 -9 -5 3 -6 10 -3
15 9 13 12 11 12 -6z m208 5 c3 -6 -1 -7 -9 -4 -18 7 -21 14 -7 14 6 0 13 -4
16 -10z m30 1 c3 -5 2 -12 -3 -15 -5 -3 -9 1 -9 9 0 17 3 19 12 6z m1050 -1
c-3 -5 -12 -10 -18 -10 -7 0 -6 4 3 10 19 12 23 12 15 0z m-1327 -45 c-3 -3
-9 2 -12 12 -6 14 -5 15 5 6 7 -7 10 -15 7 -18z m1326 7 c2 -4 -4 -8 -14 -8
-10 0 -16 4 -14 8 3 4 9 8 14 8 5 0 11 -4 14 -8z m151 -10 c-3 -3 -11 0 -18 7
-9 10 -8 11 6 5 10 -3 15 -9 12 -12z m122 -27 c0 -8 -4 -12 -9 -9 -5 3 -6 10
-3 15 9 13 12 11 12 -6z m-1366 -12 c13 -16 12 -17 -3 -4 -10 7 -18 15 -18 17
0 8 8 3 21 -13z m125 -33 c0 -12 -4 -16 -9 -11 -5 5 -6 14 -3 20 10 15 12 14
12 -9z m-556 -13 c0 5 4 3 8 -2 19 -28 73 -56 94 -50 16 4 19 3 9 -3 -10 -7
-7 -13 15 -24 86 -45 120 -64 132 -75 6 -6 22 -15 35 -19 12 -3 30 -13 40 -22
9 -8 17 -11 17 -6 0 5 4 3 9 -4 4 -7 17 -14 29 -15 11 0 19 -5 16 -9 -6 -9 51
-39 60 -31 3 4 6 1 6 -5 0 -14 60 -43 73 -35 5 3 7 2 4 -4 -3 -5 11 -19 31
-30 31 -16 41 -18 57 -8 34 21 547 311 599 338 42 22 53 24 65 14 9 -7 27 -19
41 -25 14 -7 34 -18 45 -25 36 -23 110 -61 115 -60 3 1 11 -5 17 -12 11 -12
-36 -42 -265 -171 -152 -87 -356 -202 -452 -257 -163 -94 -204 -110 -219 -90
-13 17 -72 44 -83 37 -7 -4 -8 -3 -4 4 4 7 -4 17 -21 24 -15 7 -40 20 -55 31
-16 10 -33 15 -39 11 -8 -4 -9 -3 -5 4 4 7 2 12 -3 12 -6 0 -13 0 -16 0 -3 0
-14 9 -25 20 -11 11 -31 22 -45 26 -14 3 -25 10 -25 15 0 5 -7 9 -15 9 -9 0
-26 9 -38 20 -15 15 -30 19 -47 15 -18 -4 -21 -3 -11 4 12 8 9 12 -15 23 -16
7 -32 17 -36 23 -5 6 -8 6 -8 0 0 -6 -3 -6 -8 1 -10 16 -142 87 -142 77 0 -4
-4 -2 -8 5 -11 16 -164 104 -156 89 4 -7 -3 -2 -15 11 -12 12 -25 21 -29 19
-4 -3 -15 3 -24 13 -17 16 -11 20 109 88 122 68 128 70 155 56 15 -8 28 -11
28 -7z m520 13 c0 -5 -2 -10 -4 -10 -3 0 -8 5 -11 10 -3 6 -1 10 4 10 6 0 11
-4 11 -10z m-396 -38 c2 -4 -4 -8 -14 -8 -10 0 -16 4 -14 8 3 4 9 8 14 8 5 0
11 -4 14 -8z m1430 -40 c3 -5 -1 -9 -9 -9 -8 0 -12 4 -9 9 3 4 7 8 9 8 2 0 6
-4 9 -8z m-1034 -46 c-7 -7 -13 -7 -20 0 -6 6 -3 10 10 10 13 0 16 -4 10 -10z
m0 -30 c0 -3 -4 -8 -10 -11 -5 -3 -10 -1 -10 4 0 6 5 11 10 11 6 0 10 -2 10
-4z m-787 -41 c-3 -9 -8 -14 -10 -11 -3 3 -2 9 2 15 9 16 15 13 8 -4z m-33
-25 c0 -5 -5 -10 -11 -10 -5 0 -7 5 -4 10 3 6 8 10 11 10 2 0 4 -4 4 -10z
m-116 -18 c2 -4 -4 -8 -14 -8 -10 0 -16 4 -14 8 3 4 9 8 14 8 5 0 11 -4 14 -8z
m-134 -78 c0 -8 -19 -13 -24 -6 -3 5 1 9 9 9 8 0 15 -2 15 -3z m310 2 c0 -2
-7 -7 -16 -10 -8 -3 -12 -2 -9 4 6 10 25 14 25 6z m114 -12 c3 -8 2 -12 -4 -9
-6 3 -10 10 -10 16 0 14 7 11 14 -7z m-433 -31 c13 -16 12 -17 -3 -4 -10 7
-18 15 -18 17 0 8 8 3 21 -13z m34 -2 c3 -5 2 -12 -3 -15 -5 -3 -9 1 -9 9 0
17 3 19 12 6z m410 0 c-9 -8 -36 -10 -30 -2 2 4 11 8 20 8 8 0 13 -3 10 -6z
m-408 -46 c0 -8 -4 -12 -9 -9 -5 3 -6 10 -3 15 9 13 12 11 12 -6z m303 -15 c0
-5 -2 -10 -4 -10 -3 0 -8 5 -11 10 -3 6 -1 10 4 10 6 0 11 -4 11 -10z m320 0
c0 -5 -2 -10 -4 -10 -3 0 -8 5 -11 10 -3 6 -1 10 4 10 6 0 11 -4 11 -10z m94
-18 c3 -5 -1 -9 -9 -9 -8 0 -12 4 -9 9 3 4 7 8 9 8 2 0 6 -4 9 -8z m-596 -47
c-3 -3 -9 2 -12 12 -6 14 -5 15 5 6 7 -7 10 -15 7 -18z m236 -5 c-6 -6 -10 -3
-10 10 0 13 4 16 10 10 7 -7 7 -13 0 -20z m367 13 c13 -16 12 -17 -3 -4 -10 7
-18 15 -18 17 0 8 8 3 21 -13z m-566 -3 c3 -5 1 -10 -4 -10 -6 0 -11 5 -11 10
0 6 2 10 4 10 3 0 8 -4 11 -10z m45 -4 c-7 -7 -13 -7 -20 0 -6 6 -3 10 10 10
13 0 16 -4 10 -10z m200 10 c0 -3 -4 -8 -10 -11 -5 -3 -10 -1 -10 4 0 6 5 11
10 11 6 0 10 -2 10 -4z m-200 -40 c0 -3 -4 -8 -10 -11 -5 -3 -10 -1 -10 4 0 6
5 11 10 11 6 0 10 -2 10 -4z m135 -86 c3 -5 1 -10 -4 -10 -6 0 -11 5 -11 10 0
6 2 10 4 10 3 0 8 -4 11 -10z m429 -198 c3 -5 -1 -9 -9 -9 -8 0 -12 4 -9 9 3
4 7 8 9 8 2 0 6 -4 9 -8z m-11 -37 c-3 -9 -8 -14 -10 -11 -3 3 -2 9 2 15 9 16
15 13 8 -4z m201 -43 c3 -5 -1 -9 -9 -9 -8 0 -12 4 -9 9 3 4 7 8 9 8 2 0 6 -4
9 -8z m7 -39 c13 -16 12 -17 -3 -4 -10 7 -18 15 -18 17 0 8 8 3 21 -13z"/>
</g>
</svg>
